<svg
	width="16"
	height="16"
	viewBox="0 0 512 512"
	fill="none"
	xmlns="http://www.w3.org/2000/svg"
>
	<path
		d="M9.50003 79.1497C32.2273 76.7573 193 103.65 267.5 116.65C277.5 118.65 298.5 137.15 305.5 152.65C312.5 168.15 343 207.15 355 207.15C366 207.15 395.5 186.65 398 184.65C400.5 182.65 430.474 160.65 449.5 160.65C468 160.65 474 167.85 475.5 169.65C478 172.65 477 176.65 491.5 181.65C506 186.65 507 196.627 507 202.15C507 209.65 494 229.65 495 221.15C495.8 214.35 492.5 211.15 489.5 210.15H478C476 210.15 474 212.15 472 215.65C469.713 219.652 461 240.65 450.5 265.15C440 289.65 389.237 312.954 375.5 320.15C363.091 326.65 247.5 357.65 238 363.65C230.826 368.181 169.5 406.15 151 416.65C139.5 423.177 80 431.15 51.5 432.65C95.5 404.15 184 347.666 181 348.15C165.5 350.65 154 341.65 150 337.65L253 273.15C242.333 272.983 219.5 273.15 205 271.65C185.578 269.64 152.51 242.949 157 242.65C164.5 242.15 208 239.65 231 236.15C222 236.15 199 235.15 166.5 230.65C135.598 226.371 110.5 206.15 104.5 196.15L236 193.65L189.5 189.65L132.5 185.65C91.5 180.65 47.0114 138.162 57.5 138.65C79 139.65 219.75 154.65 218 151.65C215.506 147.374 121.167 134.316 75 125.65C53.5 121.15 4.3869e-05 80.1497 9.50003 79.1497Z"
		fill="#93D95F"
	/>
</svg>
